<svg xmlns="http://www.w3.org/2000/svg" aria-hidden="true" style="position:absolute;width:0;height:0;overflow:hidden"><defs><symbol id="icon-Vector" viewBox="0 0 32 32"><path fill="#f4f4fd" d="M31.969 9.408c-.075-1.7-.35-2.869-.744-3.882a7.793 7.793 0 0 0-1.851-2.838A7.867 7.867 0 0 0 26.542.844C25.523.45 24.361.175 22.66.1 20.947.019 20.403 0 16.059 0s-4.888.019-6.595.094c-1.7.075-2.869.35-3.882.744a7.803 7.803 0 0 0-2.838 1.85A7.867 7.867 0 0 0 .9 5.52C.506 6.539.231 7.702.156 9.402c-.081 1.713-.1 2.257-.1 6.601s.019 4.888.094 6.595c.075 1.7.35 2.869.744 3.882a7.895 7.895 0 0 0 1.85 2.838 7.867 7.867 0 0 0 2.832 1.844c1.019.394 2.182.669 3.882.744 1.706.075 2.25.094 6.595.094s4.888-.019 6.595-.094c1.7-.075 2.869-.35 3.882-.744a8.181 8.181 0 0 0 4.682-4.682c.394-1.019.669-2.182.744-3.882.075-1.707.094-2.25.094-6.595s-.006-4.888-.081-6.595zm-2.882 13.065c-.069 1.563-.331 2.407-.55 2.969a5.31 5.31 0 0 1-3.038 3.038c-.563.219-1.413.481-2.969.55-1.688.075-2.194.094-6.464.094s-4.782-.019-6.464-.094c-1.563-.069-2.407-.331-2.969-.55a4.926 4.926 0 0 1-1.838-1.194 4.974 4.974 0 0 1-1.194-1.838c-.219-.563-.481-1.413-.55-2.969-.075-1.688-.094-2.194-.094-6.464s.019-4.782.094-6.464c.069-1.563.331-2.407.55-2.969a4.868 4.868 0 0 1 1.2-1.838A4.974 4.974 0 0 1 6.639 3.55c.563-.219 1.413-.481 2.969-.55 1.688-.075 2.194-.094 6.464-.094 4.276 0 4.782.019 6.464.094 1.563.069 2.407.331 2.969.55a4.914 4.914 0 0 1 1.838 1.194 4.974 4.974 0 0 1 1.194 1.838c.219.563.481 1.413.55 2.969.075 1.688.094 2.194.094 6.464s-.019 4.77-.094 6.458z" style="fill:var(--color1, #f4f4fd)"/></symbol><symbol id="icon-Vector-1" viewBox="0 0 32 32"><path fill="#f4f4fd" d="M16.102 1.913c-7.78 0-14.092 6.312-14.092 14.092s6.312 14.092 14.092 14.092 14.092-6.312 14.092-14.092S23.882 1.913 16.102 1.913zm0 23.233a9.142 9.142 0 0 1 0-18.282 9.142 9.142 0 0 1 0 18.282z" style="fill:var(--color1, #f4f4fd)"/></symbol><symbol id="icon-Vector-2" viewBox="0 0 32 32"><path fill="#f4f4fd" d="M27.144 12.747c0 6.359-5.156 11.514-11.516 11.514-6.359 0-11.514-5.156-11.514-11.514 0-6.36 5.156-11.514 11.514-11.514 6.36 0 11.516 5.154 11.516 11.514z" style="fill:var(--color1, #f4f4fd)"/></symbol><symbol id="icon-Vector-3" viewBox="0 0 32 32"><path fill="#f4f4fd" d="M32 6.078c-1.19.522-2.458.868-3.78 1.036a6.523 6.523 0 0 0 2.886-3.626 13.11 13.11 0 0 1-4.16 1.588A6.574 6.574 0 0 0 22.154 3c-3.632 0-6.556 2.948-6.556 6.562 0 .52.044 1.02.152 1.496-5.454-.266-10.28-2.88-13.522-6.862a6.605 6.605 0 0 0-.898 3.316 6.57 6.57 0 0 0 2.914 5.452 6.479 6.479 0 0 1-2.964-.808v.072c0 3.188 2.274 5.836 5.256 6.446a6.548 6.548 0 0 1-1.72.216 5.8 5.8 0 0 1-1.242-.112c.85 2.598 3.262 4.508 6.13 4.57a13.182 13.182 0 0 1-8.134 2.798c-.538 0-1.054-.024-1.57-.09A18.469 18.469 0 0 0 10.064 29c12.072 0 18.672-10 18.672-18.668 0-.29-.01-.57-.024-.848A13.087 13.087 0 0 0 32 6.078z" style="fill:var(--color1, #f4f4fd)"/></symbol><symbol id="icon-Vector-4" viewBox="0 0 17 32"><path fill="#f4f4fd" d="M13.329 5.313h2.921V.225C15.746.156 14.013 0 11.994 0 7.782 0 4.897 2.649 4.897 7.519V12H.249v5.688h4.648V32h5.699V17.689h4.46l.708-5.688h-5.169V8.082c.001-1.644.444-2.769 2.735-2.769z" style="fill:var(--color1, #f4f4fd)"/></symbol><symbol id="icon-Vector-5" viewBox="0 0 32 32"><path fill="#f4f4fd" d="M31.048 32v-.002h.011V15.429c0-8.105-1.745-14.349-11.221-14.349-4.555 0-7.612 2.5-8.86 4.87h-.132V1.837H1.862v30.161h9.355V17.063c0-3.932.745-7.735 5.615-7.735 4.798 0 4.87 4.488 4.87 7.987v14.684h9.346z" style="fill:var(--color1, #f4f4fd)"/></symbol><symbol id="icon-Vector-6" viewBox="0 0 32 32"><path fill="#f4f4fd" d="M11.098 1.839h9.367V32h-9.367V1.839z" style="fill:var(--color1, #f4f4fd)"/></symbol><symbol id="icon-Vector-7" viewBox="0 0 32 32"><path fill="#f4f4fd" d="M15.371 0C6.886 0 0 6.885 0 15.371s6.885 15.515 15.371 15.515c8.485 0 15.371-7.029 15.371-15.515C30.737 6.886 23.851 0 15.371 0z" style="fill:var(--color1, #f4f4fd)"/></symbol></defs></svg>